<?xml version="1.0" standalone="no"?>
<!DOCTYPE svg PUBLIC "-//W3C//DTD SVG 20010904//EN"
 "http://www.w3.org/TR/2001/REC-SVG-20010904/DTD/svg10.dtd">
<svg version="1.0" xmlns="http://www.w3.org/2000/svg"
 width="1024.000000pt" height="1024.000000pt" viewBox="0 0 1024.000000 1024.000000"
 preserveAspectRatio="xMidYMid meet">

  <defs>
    <linearGradient id="customGradient" gradientUnits="userSpaceOnUse"
      x1="0" y1="0" x2="15240" y2="15240">
      <stop offset="0%" style="stop-color:#d16ba5" /> 
      <stop offset="100%" style="stop-color:#face9b" />
    </linearGradient>
  </defs>

<g transform="translate(0.000000,1024.000000) scale(0.100000,-0.100000)"
fill="url(#customGradient)" stroke="none" fill-opacity="0.8">
<path d="M3205 8848 c-35 -19 -76 -62 -95 -98 -22 -44 -74 -212 -95 -305 -9
-38 -18 -78 -21 -88 -5 -17 -26 -18 -332 -17 -280 1 -335 -1 -382 -15 -94 -29
-172 -77 -251 -155 -87 -86 -146 -180 -185 -295 l-28 -80 0 -2750 c-1 -2634 0
-2753 17 -2814 76 -268 281 -480 517 -535 55 -13 169 -16 728 -16 l664 0 42
-35 c88 -72 214 -103 290 -71 37 15 43 15 89 0 57 -19 169 -14 254 11 64 19
152 81 172 122 l16 32 75 -7 c99 -9 536 -9 625 0 l70 8 24 -45 c20 -38 35 -51
95 -80 104 -51 241 -64 278 -27 8 8 26 5 62 -10 41 -16 65 -19 121 -15 92 7
190 41 242 83 l41 34 724 0 c790 0 790 0 906 59 159 80 292 222 356 382 56
135 56 144 56 976 0 725 -1 770 -18 802 -37 69 -49 71 -399 71 l-313 0 -4 -22
c-3 -13 -8 -59 -11 -103 -3 -44 -9 -95 -12 -112 l-5 -33 246 0 246 0 0 -694
c0 -653 -1 -698 -19 -755 -46 -147 -156 -247 -309 -280 -63 -13 -1222 -16
-1222 -3 0 5 12 19 26 33 15 13 51 54 81 91 l54 68 39 -41 c37 -40 42 -41 82
-35 23 4 57 16 76 28 68 42 143 168 176 295 19 73 40 292 33 350 -2 24 -1 43
3 43 4 0 33 -9 65 -20 70 -24 137 -26 155 -5 12 14 9 70 -5 107 -4 10 7 13 42
13 73 1 118 13 147 40 57 53 19 137 -88 193 l-51 27 104 3 c57 1 105 1 107 0
7 -7 9 -545 2 -569 -12 -40 -46 -49 -189 -49 l-130 0 7 -152 c3 -84 9 -155 11
-158 3 -3 112 -5 243 -5 226 0 240 1 267 21 15 11 38 36 51 54 l22 33 0 553 0
554 -222 0 -221 0 7 197 c5 175 15 277 31 350 4 15 15 24 38 28 18 4 62 28 99
55 50 36 76 65 109 121 l44 74 205 5 c186 5 209 7 251 28 52 25 103 72 127
116 19 35 22 286 12 1246 l-5 525 -130 0 -130 0 4 -796 c2 -438 0 -806 -3
-817 -7 -21 -13 -22 -137 -22 -84 0 -129 4 -129 11 0 5 5 7 10 4 18 -11 11
100 -10 167 -11 34 -20 64 -20 66 0 1 6 2 14 2 23 0 66 40 88 83 18 37 20 53
15 147 -4 76 -13 130 -34 195 l-29 90 37 35 c87 82 67 213 -61 401 -33 48 -56
89 -53 93 4 3 19 6 34 6 15 0 37 9 50 19 21 17 24 27 23 78 -1 32 -4 146 -5
253 l-4 195 237 3 236 2 7 63 c3 34 5 98 3 142 l-3 80 -431 5 -431 5 -49 54
-49 54 -3 271 c-2 171 -7 275 -14 283 -6 8 -34 13 -69 13 l-58 0 -3 116 c-2
85 0 118 9 121 7 3 75 3 153 1 136 -3 140 -4 166 -30 l27 -26 1 -319 1 -318
375 0 375 0 3 415 c3 480 -2 532 -67 665 -51 109 -159 224 -258 277 -120 65
-146 68 -529 68 l-341 0 -12 58 c-34 154 -112 354 -158 407 -60 69 -135 75
-233 18 -90 -52 -286 -250 -375 -380 l-70 -102 -194 -1 -194 0 46 36 c80 63
105 124 71 173 -25 35 -75 51 -163 51 -157 0 -287 -65 -445 -222 -54 -54 -101
-98 -104 -98 -3 0 -33 18 -67 39 -175 111 -405 164 -615 141 -146 -15 -209
-39 -235 -90 l-16 -30 -259 0 -259 0 -62 93 c-206 306 -424 476 -534 415z
m3619 -143 c27 -29 71 -156 115 -330 35 -140 74 -361 68 -384 -3 -9 -6 -2 -7
14 -2 35 -18 80 -19 54 -1 -10 -9 -15 -23 -14 -20 1 -24 14 -49 131 -52 253
-99 411 -128 428 -19 12 -75 -30 -153 -113 -127 -135 -230 -293 -314 -479 -24
-54 -44 -91 -44 -84 0 7 7 26 15 42 17 32 10 41 -10 13 -7 -9 -21 -17 -32 -18
-15 -1 -19 4 -16 19 4 18 2 18 -12 -4 l-16 -25 7 25 c13 52 125 268 182 354
116 171 275 340 356 377 52 24 53 24 80 -6z m-3438 -53 c110 -89 224 -251 344
-487 76 -151 97 -204 64 -160 -15 19 -15 19 -9 -10 4 -19 3 -25 -2 -17 -15 20
-41 4 -37 -21 4 -19 3 -19 -7 3 -141 299 -236 454 -349 572 -48 50 -72 68 -91
68 -25 0 -28 -6 -57 -112 -17 -62 -35 -129 -41 -148 -8 -32 -9 -32 -10 -8 -1
21 -5 26 -21 23 -11 -2 -20 2 -21 8 0 7 -4 3 -9 -8 -16 -35 1 53 31 160 62
224 87 240 215 137z m1435 -326 c162 -35 343 -141 474 -277 153 -160 230 -307
320 -611 15 -49 30 -88 36 -88 22 0 3 228 -27 312 -12 34 -11 38 3 38 71 0
201 -165 219 -279 4 -22 8 -41 11 -41 2 0 36 18 76 39 146 80 321 98 472 48
44 -15 85 -30 92 -34 6 -5 -32 -7 -85 -5 -147 5 -277 -32 -334 -95 -17 -18
-13 -18 53 4 58 20 92 24 183 25 246 0 465 -93 625 -268 33 -37 61 -71 61 -77
0 -5 -6 -5 -14 2 -23 19 -150 60 -226 72 -80 14 -213 2 -286 -25 l-39 -15 80
-1 c190 -2 371 -72 543 -209 53 -43 106 -88 116 -100 l20 -22 -95 2 c-100 3
-228 -8 -247 -20 -7 -4 22 -13 65 -19 163 -26 287 -75 435 -175 169 -112 308
-267 308 -342 0 -17 -9 -13 -54 30 -30 27 -86 69 -124 92 -68 41 -160 78 -169
69 -3 -3 28 -47 69 -98 100 -125 183 -246 175 -254 -3 -4 -34 16 -69 43 -35
28 -84 62 -109 76 -51 30 -240 109 -246 103 -2 -2 28 -29 67 -61 89 -73 334
-326 400 -414 65 -85 120 -195 120 -237 0 -19 -3 -34 -7 -34 -5 0 -28 14 -52
30 -24 16 -98 58 -165 91 l-121 62 55 -62 c162 -183 258 -378 276 -559 l7 -67
-79 76 c-44 41 -100 89 -124 106 -41 28 -163 93 -174 93 -3 0 14 -21 37 -46
119 -130 173 -231 212 -397 28 -115 32 -244 10 -266 -7 -7 -30 19 -70 81 -61
93 -139 168 -225 216 l-41 23 56 -73 c72 -94 141 -234 160 -323 29 -139 12
-274 -36 -283 -9 -2 -36 21 -64 55 -26 32 -74 83 -105 113 l-58 55 -7 -70 c-9
-93 -22 -147 -56 -223 -39 -87 -106 -179 -181 -247 -63 -57 -172 -135 -189
-135 -18 0 -8 31 27 86 28 43 41 82 60 171 14 64 23 118 21 120 -3 2 -12 -9
-22 -24 -65 -101 -195 -214 -314 -273 -83 -41 -244 -111 -247 -107 -2 2 8 25
21 52 22 42 33 95 21 95 -2 0 -68 -18 -146 -41 -160 -46 -297 -96 -353 -129
l-38 -23 36 72 c21 40 34 75 31 78 -3 3 -52 -9 -108 -27 -92 -29 -264 -112
-356 -171 l-34 -22 7 56 c4 32 4 57 0 57 -5 0 -32 -8 -62 -17 -42 -13 -52 -20
-47 -32 4 -9 16 -50 27 -91 10 -41 23 -79 27 -83 4 -5 34 8 66 29 74 47 305
166 311 160 3 -3 2 -23 -2 -46 -5 -30 -32 -75 -105 -172 -215 -286 -277 -510
-191 -693 21 -46 42 -73 73 -95 60 -45 133 -80 162 -80 16 0 32 -9 42 -26 60
-90 293 -98 440 -14 242 139 419 522 377 816 -14 97 -33 121 -33 42 0 -111
-53 -315 -113 -433 -116 -232 -256 -346 -458 -375 -79 -11 -146 -1 -166 26
-11 15 -5 20 60 41 39 14 73 26 75 28 2 2 -31 1 -73 -2 -78 -6 -79 -6 -165 37
-34 16 -22 48 57 160 16 22 13 21 -24 -8 -42 -33 -93 -88 -93 -100 0 -4 -5
-14 -10 -22 -8 -13 -11 -12 -25 5 -44 57 -56 96 -56 181 1 150 46 258 195 468
90 125 117 152 196 192 29 14 345 124 358 124 2 0 -6 -15 -17 -34 -12 -18 -21
-41 -21 -51 0 -16 7 -17 66 -11 90 9 202 46 316 105 l97 50 58 -92 c105 -166
306 -600 319 -691 l7 -41 -69 67 c-74 73 -104 97 -118 98 -5 0 4 -10 20 -22
51 -38 50 -42 -1 -13 -27 15 -59 34 -70 42 -34 23 -35 15 -6 -29 40 -60 60
-123 82 -263 22 -144 24 -227 4 -319 -23 -107 -121 -296 -146 -281 -5 4 -9 50
-9 103 0 104 -21 252 -47 342 l-16 55 -13 -90 c-28 -188 -83 -311 -217 -479
-60 -76 -191 -196 -214 -196 -5 0 -24 18 -41 39 -43 54 -144 118 -225 142 -93
29 -236 24 -317 -11 -89 -38 -154 -86 -196 -144 -21 -31 -46 -58 -54 -60 -23
-9 -191 -24 -335 -32 -91 -4 -185 -1 -310 10 -157 15 -182 20 -195 37 -73 97
-95 122 -135 149 -74 51 -147 72 -250 72 -151 -1 -263 -48 -366 -153 l-49 -51
-68 50 c-122 91 -265 253 -342 387 -43 75 -79 186 -87 270 l-7 70 -8 -45 c-8
-52 -12 -435 -5 -448 6 -9 -9 -39 -16 -32 -14 17 -67 100 -80 127 -57 110 -94
344 -77 481 12 94 62 253 96 304 13 21 24 40 24 43 0 15 -117 -85 -160 -137
l-50 -60 0 40 c0 144 103 444 218 635 l47 79 40 -5 c22 -3 49 -2 59 2 16 6 3
19 -70 73 -99 73 -186 160 -234 234 l-32 49 6 -102 c4 -56 13 -127 21 -158 8
-31 15 -58 15 -61 0 -3 -26 15 -57 39 -109 83 -184 181 -248 321 -33 71 -75
220 -75 263 0 13 -4 23 -9 23 -10 0 -86 -88 -128 -150 -17 -25 -43 -56 -58
-70 l-27 -25 -20 25 c-18 22 -20 35 -15 105 9 130 67 272 186 453 34 51 61 95
61 98 0 3 -28 -16 -62 -43 -97 -76 -210 -225 -243 -319 l-12 -36 -7 32 c-18
91 9 263 61 386 43 102 126 232 208 322 31 34 51 62 43 62 -30 0 -147 -79
-208 -141 -36 -36 -91 -108 -123 -160 l-59 -94 7 70 c14 141 46 252 106 363
53 100 114 177 243 310 l111 113 -65 -27 c-131 -56 -267 -155 -353 -258 -48
-59 -49 -59 -42 -26 23 106 188 441 279 568 109 151 301 325 470 426 33 20 58
36 55 36 -17 0 -214 -72 -259 -95 -107 -54 -226 -139 -314 -224 -96 -94 -103
-89 -39 29 63 117 186 253 298 330 24 16 99 57 167 90 138 67 286 109 397 113
38 1 67 5 63 8 -28 27 -265 38 -364 18 -29 -6 -91 -29 -138 -50 l-85 -39 90
85 c155 146 305 236 473 283 85 23 114 26 242 26 86 0 156 -5 173 -12 15 -6
27 -9 27 -6 0 12 -172 85 -236 100 -148 35 -323 2 -490 -91 -35 -20 -64 -32
-64 -26 0 23 127 166 188 211 79 59 211 129 300 159 223 76 483 62 660 -34 34
-19 62 -30 62 -24 0 6 -26 36 -58 68 -63 61 -154 111 -247 136 -64 16 -194 23
-235 11 -24 -7 -25 -7 -5 9 90 75 357 126 548 105 124 -14 201 -39 286 -91
l64 -40 -7 46 c-9 73 -62 162 -142 242 -80 80 -123 105 -299 173 -70 28 -120
53 -120 61 0 34 157 93 295 110 195 23 345 -25 459 -147 69 -73 70 -69 24 56
-41 111 -107 195 -207 263 -51 35 -57 41 -40 48 33 13 215 9 285 -5z m2820
-245 c97 -7 137 -15 170 -32 73 -36 124 -86 160 -152 l34 -62 3 -307 3 -308
-104 0 c-91 0 -105 2 -109 18 -3 9 -6 127 -7 262 -3 270 -7 291 -65 333 -30
21 -40 22 -298 25 -307 4 -272 -11 -283 117 -3 39 -8 78 -11 87 -3 10 2 18 13
20 47 8 382 8 494 -1z m-4702 -23 c0 -13 -6 -61 -12 -108 l-12 -85 -252 -5
c-276 -5 -276 -5 -327 -74 -24 -31 -23 -3 -18 -553 l2 -323 124 0 c68 0 131 3
140 6 14 5 16 42 16 308 0 280 1 303 20 333 13 21 31 35 57 42 43 12 210 15
216 4 2 -5 1 -55 -2 -113 -6 -103 -7 -105 -31 -108 -53 -8 -52 -3 -48 -330 l3
-304 -33 -29 -32 -29 -215 0 -215 0 0 -238 c0 -237 0 -238 -29 -322 -16 -47
-36 -125 -44 -175 -14 -82 -14 -92 1 -108 8 -10 22 -15 29 -13 19 8 17 3 -31
-103 -25 -53 -52 -127 -62 -164 l-18 -67 -44 0 -43 0 6 1108 c3 609 8 1128 11
1154 13 127 119 258 244 301 37 13 97 16 323 17 l277 0 -1 -22z m3138 -41
c-19 -50 -57 -182 -67 -234 l-13 -63 -63 0 c-54 0 -70 4 -103 28 -34 24 -71
43 -149 73 -23 9 -24 12 -17 82 3 39 8 84 11 100 l6 27 200 0 c162 0 199 -3
195 -13z m-1982 -189 c61 -17 210 -86 203 -94 -2 -1 -67 0 -145 3 l-142 6 -6
41 c-4 23 -9 50 -12 60 -4 15 -2 18 13 11 11 -4 50 -16 89 -27z m-1945 -2621
c0 -8 -7 -60 -16 -118 -26 -172 -9 -348 40 -401 17 -18 20 -33 18 -97 -5 -142
23 -288 63 -335 28 -32 33 -105 37 -496 l3 -255 -107 -3 -108 -3 0 224 c0 123
-3 508 -7 855 l-6 630 34 5 c19 2 37 5 42 5 4 1 7 -4 7 -11z m5597 -604 c-2
-16 -4 -5 -4 22 0 28 2 40 4 28 2 -13 2 -35 0 -50z m-5063 -658 c15 -24 53
-76 86 -114 l60 -69 0 -452 c0 -504 0 -506 67 -538 33 -16 33 -16 33 -88 0
-87 8 -84 -182 -84 l-138 0 0 763 0 762 24 -67 c13 -38 36 -88 50 -113z m4505
-362 l0 -328 -61 120 c-71 140 -106 238 -115 316 -5 52 -4 57 16 64 11 3 51
40 88 81 37 41 69 74 70 74 2 0 3 -147 2 -327z m-4869 -815 c5 -431 6 -447 26
-474 50 -68 54 -69 292 -72 119 -1 251 1 292 5 l75 8 0 30 c-1 17 -4 50 -7 75
-6 42 -4 39 37 -46 64 -132 165 -234 232 -234 27 0 63 29 77 61 l12 29 53 -64
c29 -35 66 -73 82 -85 16 -12 29 -26 29 -32 0 -6 -191 -9 -552 -7 -552 3 -553
3 -610 26 -85 34 -168 100 -205 163 -56 95 -61 132 -67 592 -3 229 -3 431 1
447 l6 31 111 -3 111 -3 5 -447z m2035 -682 c109 -54 159 -123 158 -220 -1
-62 -16 -93 -64 -128 -58 -43 -285 -71 -322 -39 -22 18 -23 99 -1 130 16 22
16 23 -3 12 -25 -13 -53 -70 -53 -108 0 -16 -5 -34 -12 -41 -28 -28 -122 -5
-175 41 -68 60 -81 138 -37 225 29 58 65 92 135 128 71 36 114 44 212 40 78
-3 97 -8 162 -40z m1628 14 c161 -60 251 -212 184 -311 -30 -44 -114 -86 -205
-101 -63 -11 -77 -10 -100 3 -24 13 -27 22 -30 72 -2 31 -7 57 -12 57 -10 0
-30 -55 -30 -85 0 -39 -23 -48 -101 -41 -189 17 -264 121 -193 264 36 73 111
128 214 158 64 19 201 11 273 -16z"/>
<path d="M6941 8064 c0 -11 3 -14 6 -6 3 7 2 16 -1 19 -3 4 -6 -2 -5 -13z"/>
<path d="M6245 7991 c-3 -5 -1 -12 5 -16 5 -3 10 1 10 9 0 18 -6 21 -15 7z"/>
<path d="M5647 7020 c-3 -52 -15 -129 -27 -170 -28 -102 -128 -299 -203 -400
l-62 -83 -5 134 -5 134 -43 -63 c-93 -135 -266 -281 -440 -370 -137 -71 -174
-69 -208 10 -14 34 -17 69 -17 168 1 110 -1 122 -13 100 -7 -14 -21 -58 -30
-99 -23 -101 -16 -195 20 -255 33 -56 57 -70 110 -64 97 11 338 155 475 284
l81 76 0 -91 c0 -88 1 -91 20 -81 11 6 45 36 76 68 125 127 229 294 274 437
28 90 37 252 18 315 l-14 45 -7 -95z"/>
<path d="M3911 6040 c-53 -11 -143 -40 -153 -49 -4 -3 32 -7 80 -7 138 -2 289
-61 394 -154 49 -43 63 -48 71 -26 16 42 -98 182 -178 217 -52 23 -152 32
-214 19z"/>
<path d="M5853 6035 c-59 -18 -126 -59 -157 -96 -53 -63 -80 -139 -49 -139 5
0 35 20 68 45 133 101 276 150 418 143 l89 -4 -36 18 c-86 44 -247 60 -333 33z"/>
<path d="M5989 5781 c-92 -29 -156 -71 -229 -147 -229 -241 -235 -616 -12
-825 176 -166 394 -193 623 -79 186 94 292 274 292 500 0 256 -157 478 -392
550 -81 25 -205 26 -282 1z m287 -117 c174 -61 308 -243 321 -434 18 -254
-136 -455 -395 -516 -160 -38 -358 25 -448 143 l-26 35 61 -46 c189 -138 407
-122 565 44 67 70 101 138 117 237 37 226 -89 424 -303 479 -78 20 -199 14
-284 -15 -32 -11 -60 -18 -62 -16 -6 6 87 65 134 85 103 45 201 46 320 4z m-9
-130 c46 -31 57 -44 55 -62 -2 -13 2 -31 10 -40 11 -13 11 -14 -1 -7 -11 6
-13 3 -9 -13 3 -12 2 -20 -2 -19 -5 1 -19 -14 -32 -33 -67 -99 -197 -109 -271
-21 -50 60 -30 181 37 223 24 15 45 18 93 16 53 -3 71 -10 120 -44z m98 -74
c10 -11 16 -20 13 -20 -3 0 -13 9 -23 20 -10 11 -16 20 -13 20 3 0 13 -9 23
-20z m31 -42 c3 -4 -1 -5 -10 -4 -8 1 -18 5 -22 8 -3 4 1 5 10 4 8 -1 18 -5
22 -8z m-29 -130 c-3 -8 -6 -5 -6 6 -1 11 2 17 5 13 3 -3 4 -12 1 -19z m10
-75 c-3 -10 -5 -2 -5 17 0 19 2 27 5 18 2 -10 2 -26 0 -35z m70 -85 c-3 -8 -6
-5 -6 6 -1 11 2 17 5 13 3 -3 4 -12 1 -19z m-97 -52 c-13 -34 -13 -49 0 -41 6
3 7 -1 4 -10 -5 -12 -2 -16 12 -13 13 2 18 -2 16 -12 -1 -8 7 -4 18 10 19 22
18 19 -4 -25 -71 -147 -252 -239 -403 -205 -32 7 -83 25 -114 41 -61 30 -149
109 -149 134 0 21 2 20 51 -21 80 -67 113 -79 219 -79 88 0 101 3 162 33 77
38 149 112 175 180 9 23 18 41 20 39 2 -3 -1 -16 -7 -31z m87 2 c-3 -8 -6 -5
-6 6 -1 11 2 17 5 13 3 -3 4 -12 1 -19z"/>
<path d="M5740 4946 c0 -2 8 -10 18 -17 15 -13 16 -12 3 4 -13 16 -21 21 -21
13z"/>
<path d="M3705 5772 c-157 -48 -287 -152 -358 -288 -89 -172 -90 -359 -3 -531
45 -90 92 -142 178 -199 99 -66 183 -95 293 -101 255 -15 474 145 551 403 24
80 24 238 0 318 -53 176 -187 324 -356 391 -67 26 -228 30 -305 7z m325 -118
c64 -31 139 -85 95 -68 -11 4 -76 9 -145 12 -142 5 -199 -9 -308 -72 -231
-136 -268 -451 -77 -654 72 -78 195 -132 299 -132 62 0 190 40 246 76 l55 37
-32 -34 c-209 -221 -617 -143 -758 145 -96 196 -46 440 124 599 94 88 206 128
346 124 76 -2 100 -7 155 -33z m118 -100 c180 -75 150 -284 -40 -284 -98 0
-163 69 -155 163 5 57 30 95 78 119 42 22 69 23 117 2z m-539 -175 c-69 -176
-6 -381 151 -485 88 -58 242 -67 346 -20 l50 23 -1 -21 c-1 -11 -16 -31 -34
-43 -107 -72 -276 -90 -384 -41 -175 81 -280 296 -234 481 9 36 28 84 43 106
23 35 28 39 38 25 10 -14 14 -12 26 10 22 43 22 22 -1 -35z"/>
<path d="M3557 5373 c-6 -16 -15 -30 -18 -33 -13 -10 -29 -85 -19 -88 5 -2 3
-10 -5 -19 -15 -15 -21 -83 -7 -83 19 0 37 39 37 78 -1 23 3 48 8 55 5 7 7 -2
4 -24 -3 -20 -1 -42 4 -50 7 -9 9 5 7 44 -2 31 0 57 3 57 4 0 9 12 12 26 3 18
1 24 -9 20 -17 -6 -17 -1 -4 25 6 10 8 19 5 19 -3 0 -11 -12 -18 -27z m13 -42
c0 -5 -7 -14 -15 -21 -16 -14 -18 -10 -9 14 6 17 24 22 24 7z m-40 -145 c0 -3
-4 -8 -10 -11 -5 -3 -10 -1 -10 4 0 6 5 11 10 11 6 0 10 -2 10 -4z"/>
<path d="M7461 5636 c2 -2 15 -9 29 -15 24 -11 24 -11 6 3 -16 13 -49 24 -35
12z"/>
<path d="M4833 4959 c-81 -19 -81 -58 0 -118 29 -22 68 -48 87 -58 47 -26 53
-72 14 -108 -31 -29 -110 -55 -165 -55 -91 0 -225 79 -216 127 3 19 2 21 -9
12 -44 -36 24 -123 125 -159 35 -13 61 -29 61 -37 0 -30 51 -113 91 -146 46
-40 115 -67 168 -67 82 1 183 79 228 178 14 28 30 52 36 52 25 0 134 73 150
100 20 33 22 71 5 88 -17 17 -33 15 -18 -3 9 -11 8 -22 -7 -52 -53 -109 -248
-140 -360 -56 -28 20 -33 30 -33 66 0 41 1 43 60 75 130 72 153 116 78 147
-51 21 -232 29 -295 14z m297 -39 c20 -13 -46 -40 -97 -40 l-38 0 40 25 c43
26 71 31 95 15z m-88 -315 c29 -14 74 -28 100 -31 l47 -6 -15 -37 c-19 -46
-68 -97 -118 -123 -102 -52 -242 22 -280 148 -6 19 -2 22 41 27 27 3 68 15 93
26 59 26 68 26 132 -4z"/>
<path d="M3367 3864 c-17 -17 67 -114 153 -177 39 -28 144 -63 205 -69 49 -4
56 16 25 67 -19 31 -20 35 -5 35 31 0 269 -99 346 -144 105 -62 216 -193 294
-347 95 -187 96 -437 1 -493 -14 -9 -20 -7 -30 9 -18 31 -92 105 -106 105 -7
0 2 -16 20 -37 28 -31 31 -42 27 -75 -6 -45 -26 -71 -67 -88 -24 -10 -35 -8
-79 14 -27 14 -61 26 -73 26 -18 -1 -12 -7 25 -26 26 -13 47 -28 47 -33 0 -16
-67 -41 -108 -41 -22 0 -69 9 -105 20 -240 74 -437 412 -441 757 0 78 -2 89
-13 70 -23 -43 -35 -158 -30 -286 5 -144 29 -228 96 -341 161 -268 494 -412
645 -280 24 22 44 30 71 30 20 0 49 8 63 18 15 11 50 31 79 47 138 74 178 278
101 515 -40 124 -100 227 -195 336 -29 34 -53 68 -53 77 0 20 31 87 40 87 10
0 217 -108 263 -137 21 -13 35 -28 32 -32 -2 -5 3 -15 13 -22 16 -13 16 -13 2
5 -14 17 -13 18 7 12 24 -8 22 -12 54 117 7 27 18 51 26 54 21 8 82 -37 170
-126 45 -45 83 -81 87 -81 3 0 18 19 33 43 15 23 48 67 73 97 26 30 66 82 91
114 24 32 52 70 63 83 28 36 13 38 -45 6 -60 -32 -169 -135 -194 -183 l-16
-31 -42 38 c-86 79 -270 207 -281 196 -3 -4 -6 -15 -6 -26 0 -16 -39 -166 -46
-175 -1 -2 -35 16 -76 41 -126 77 -318 166 -318 148 0 -5 7 -25 15 -44 16 -38
19 -84 9 -111 -5 -14 -10 -13 -35 5 -81 58 -348 161 -521 203 -35 8 -35 -3 -3
-71 13 -29 21 -53 18 -53 -8 0 -150 78 -209 115 -56 36 -87 48 -97 39z"/>
</g>
</svg>
